# xmcd CD database file
#
# Track frame offsets:
#	150
#	14151
#	23947
#	36840
#	53962
#	69159
#	82407
#	94036
#	105780
#	115977
#	128730
#	143197
#	153173
#	172755
#	185132
#	196356
#
# Disc length: 2822 seconds
#
# Revision: 0
# Processed by: cddbd v1.5.1PL0 Copyright (c) Steve Scherf et al.
# Submitted via: CDex 1.51
#
DISCID=d60b0410
DTITLE=Kenny Rogers - Kenny Rogers
DYEAR=1900
DGENRE=Country
TTITLE0=Loser
TTITLE1=Where Does Rosie Go?
TTITLE2=Ruby, Don't Take Your Love To Town
TTITLE3=Something's Burnin'
TTITLE4=Tell It All Brother
TTITLE5=Shine On Ruby Mountain
TTITLE6=Me And Bobby McGee
TTITLE7=A Poem For My Little Lady
TTITLE8=Ticket To Nowhere
TTITLE9=Love Woman
TTITLE10=Heed The Call
TTITLE11=Goodtime Liberator
TTITLE12=Lay It Down
TTITLE13=Reuben James
TTITLE14=Always Leaving, Always Gone
TTITLE15=For The Good Times
EXTD=
EXTT0=
EXTT1=
EXTT2=
EXTT3=
EXTT4=
EXTT5=
EXTT6=
EXTT7=
EXTT8=
EXTT9=
EXTT10=
EXTT11=
EXTT12=
EXTT13=
EXTT14=
EXTT15=
PLAYORDER=
